<svg width="1200" height="630" viewBox="0 0 1200 630" fill="none" xmlns="http://www.w3.org/2000/svg">
  <rect width="1200" height="630" fill="#071425"/>
  <circle cx="1120" cy="30" r="370" fill="#163A66" opacity="0.72"/>
  <text x="72" y="90" fill="white" font-family="Arial, Helvetica, sans-serif" font-size="34" font-weight="700">TKO Solutions</text>
  <text x="72" y="172" fill="#B9D1EB" font-family="Arial, Helvetica, sans-serif" font-size="21" font-weight="700" letter-spacing="2.4">HEALTHCARE TRANSFORMATION ADVISORY</text>
  <text x="72" y="272" fill="white" font-family="Arial, Helvetica, sans-serif" font-size="58" font-weight="700">Make complex healthcare</text>
  <text x="72" y="342" fill="white" font-family="Arial, Helvetica, sans-serif" font-size="58" font-weight="700">change executable.</text>
  <text x="72" y="431" fill="#D5DEEB" font-family="Arial, Helvetica, sans-serif" font-size="26">Reduce the burden. Preserve the control.</text>
  <text x="72" y="470" fill="#D5DEEB" font-family="Arial, Helvetica, sans-serif" font-size="26">Redesign the system.</text>
  <g transform="translate(900 205)"><circle cx="0" cy="0" r="14" fill="#0F1729" stroke="#7DA3C9" stroke-width="4"/><path d="M18 0H105V72H165" stroke="#7DA3C9" stroke-width="4"/><circle cx="165" cy="72" r="22" fill="#1D4E89"/><path d="M154 72L162 80L177 63" stroke="white" stroke-width="4" stroke-linecap="round" stroke-linejoin="round"/><path d="M0 70H76V145H165" stroke="#4F8BC3" stroke-width="5"/><circle cx="0" cy="70" r="14" fill="#0F1729" stroke="#7DA3C9" stroke-width="4"/><circle cx="165" cy="145" r="22" fill="#1D4E89"/><path d="M154 145L162 153L177 136" stroke="white" stroke-width="4" stroke-linecap="round" stroke-linejoin="round"/></g>
  <rect x="72" y="548" width="1056" height="2" fill="#435874"/><text x="72" y="590" fill="#AFC1D5" font-family="Arial, Helvetica, sans-serif" font-size="19">Principal-led advisory · tko.solutions</text>
</svg>
